<svg xmlns="http://www.w3.org/2000/svg" xmlns:xlink="http://www.w3.org/1999/xlink" width="500" zoomAndPan="magnify" viewBox="0 0 375 374.999991" height="500" preserveAspectRatio="xMidYMid meet" version="1.0"><defs><g/><clipPath id="a5114b33de"><path d="M 266.257812 145.445312 L 315.007812 145.445312 L 315.007812 164.195312 L 266.257812 164.195312 Z M 266.257812 145.445312 " clip-rule="nonzero"/></clipPath></defs><g fill="#222222" fill-opacity="1"><g transform="translate(56.916841, 206.249986)"><g><path d="M 17.359375 -57.75 L 17.359375 0 L 4.203125 0 L 4.203125 -57.75 Z M 17.359375 -57.75 "/></g></g></g><g fill="#222222" fill-opacity="1"><g transform="translate(78.475666, 206.249986)"><g><path d="M 4.203125 0 L 4.203125 -35.90625 L 16.59375 -35.90625 L 16.59375 -32.125 L 16.734375 -32.125 C 19.953125 -35.34375 23.378906 -36.953125 27.015625 -36.953125 C 28.796875 -36.953125 30.5625 -36.71875 32.3125 -36.25 C 34.0625 -35.789062 35.738281 -35.070312 37.34375 -34.09375 C 38.957031 -33.113281 40.265625 -31.722656 41.265625 -29.921875 C 42.265625 -28.128906 42.765625 -26.039062 42.765625 -23.65625 L 42.765625 0 L 30.375 0 L 30.375 -20.296875 C 30.375 -22.160156 29.78125 -23.789062 28.59375 -25.1875 C 27.40625 -26.59375 25.851562 -27.296875 23.9375 -27.296875 C 22.070312 -27.296875 20.378906 -26.570312 18.859375 -25.125 C 17.347656 -23.675781 16.59375 -22.066406 16.59375 -20.296875 L 16.59375 0 Z M 4.203125 0 "/></g></g></g><g fill="#222222" fill-opacity="1"><g transform="translate(124.743142, 206.249986)"><g><path d="M 4.203125 0 L 4.203125 -35.90625 L 16.59375 -35.90625 L 16.59375 -32.125 L 16.734375 -32.125 C 19.953125 -35.34375 23.378906 -36.953125 27.015625 -36.953125 C 28.796875 -36.953125 30.5625 -36.71875 32.3125 -36.25 C 34.0625 -35.789062 35.738281 -35.070312 37.34375 -34.09375 C 38.957031 -33.113281 40.265625 -31.722656 41.265625 -29.921875 C 42.265625 -28.128906 42.765625 -26.039062 42.765625 -23.65625 L 42.765625 0 L 30.375 0 L 30.375 -20.296875 C 30.375 -22.160156 29.78125 -23.789062 28.59375 -25.1875 C 27.40625 -26.59375 25.851562 -27.296875 23.9375 -27.296875 C 22.070312 -27.296875 20.378906 -26.570312 18.859375 -25.125 C 17.347656 -23.675781 16.59375 -22.066406 16.59375 -20.296875 L 16.59375 0 Z M 4.203125 0 "/></g></g></g><g fill="#222222" fill-opacity="1"><g transform="translate(171.010618, 206.249986)"><g><path d="M 7.59375 -4.265625 C 3.601562 -7.816406 1.609375 -12.367188 1.609375 -17.921875 C 1.609375 -23.472656 3.679688 -28.03125 7.828125 -31.59375 C 11.984375 -35.164062 17.117188 -36.953125 23.234375 -36.953125 C 29.253906 -36.953125 34.328125 -35.15625 38.453125 -31.5625 C 42.585938 -27.976562 44.65625 -23.429688 44.65625 -17.921875 C 44.65625 -12.410156 42.632812 -7.867188 38.59375 -4.296875 C 34.5625 -0.734375 29.441406 1.046875 23.234375 1.046875 C 16.796875 1.046875 11.582031 -0.722656 7.59375 -4.265625 Z M 17.171875 -24 C 15.566406 -22.414062 14.765625 -20.382812 14.765625 -17.90625 C 14.765625 -15.4375 15.535156 -13.421875 17.078125 -11.859375 C 18.617188 -10.296875 20.648438 -9.515625 23.171875 -9.515625 C 25.597656 -9.515625 27.59375 -10.304688 29.15625 -11.890625 C 30.71875 -13.484375 31.5 -15.492188 31.5 -17.921875 C 31.5 -20.390625 30.691406 -22.414062 29.078125 -24 C 27.472656 -25.59375 25.503906 -26.390625 23.171875 -26.390625 C 20.785156 -26.390625 18.785156 -25.59375 17.171875 -24 Z M 17.171875 -24 "/></g></g></g><g fill="#222222" fill-opacity="1"><g transform="translate(217.278094, 206.249986)"><g><path d="M 33.53125 -57.75 L 56.84375 0 L 42.703125 0 L 38.4375 -11.546875 L 16.453125 -11.546875 L 12.1875 0 L -1.953125 0 L 21.34375 -57.75 Z M 33.953125 -23.09375 L 27.515625 -39.90625 L 27.375 -39.90625 L 20.9375 -23.09375 Z M 33.953125 -23.09375 "/></g></g></g><g fill="#222222" fill-opacity="1"><g transform="translate(272.155108, 206.249986)"><g><path d="M 15.890625 -35.90625 L 15.890625 -18.828125 C 15.890625 -15.285156 16.425781 -12.765625 17.5 -11.265625 C 18.570312 -9.773438 20.390625 -9.03125 22.953125 -9.03125 C 25.523438 -9.03125 27.347656 -9.773438 28.421875 -11.265625 C 29.492188 -12.765625 30.03125 -15.285156 30.03125 -18.828125 L 30.03125 -35.90625 L 42.421875 -35.90625 L 42.421875 -15.8125 C 42.421875 -9.84375 40.867188 -5.539062 37.765625 -2.90625 C 34.660156 -0.269531 29.722656 1.046875 22.953125 1.046875 C 16.191406 1.046875 11.257812 -0.269531 8.15625 -2.90625 C 5.050781 -5.539062 3.5 -9.84375 3.5 -15.8125 L 3.5 -35.90625 Z M 15.890625 -35.90625 "/></g></g></g><g clip-path="url(#a5114b33de)"><path fill="#f6b21b" d="M 266.015625 145.769531 L 297.058594 145.769531 C 307.230469 145.769531 315.46875 154.003906 315.46875 164.175781 L 266.015625 164.175781 Z M 266.015625 145.769531 " fill-opacity="1" fill-rule="nonzero"/></g><g fill="#222222" fill-opacity="1"><g transform="translate(113.900513, 225.405381)"><g><path d="M 7.546875 -8.796875 L 4.484375 -8.796875 L 4.484375 0 L 3.3125 0 L 3.3125 -8.796875 L 0.25 -8.796875 L 0.25 -9.828125 L 7.546875 -9.828125 Z M 7.546875 -8.796875 "/></g></g></g><g fill="#222222" fill-opacity="1"><g transform="translate(126.048784, 225.405381)"><g><path d="M 1.1875 -9.828125 L 6.546875 -9.828125 L 6.546875 -8.796875 L 2.359375 -8.796875 L 2.359375 -5.578125 L 6.1875 -5.578125 L 6.1875 -4.53125 L 2.359375 -4.53125 L 2.359375 -1.046875 L 6.609375 -1.046875 L 6.609375 0 L 1.1875 0 Z M 1.1875 -9.828125 "/></g></g></g><g fill="#222222" fill-opacity="1"><g transform="translate(137.930317, 225.405381)"><g><path d="M 7.484375 -0.40625 C 7.203125 -0.1875 6.84375 -0.0351562 6.40625 0.046875 C 5.976562 0.128906 5.523438 0.171875 5.046875 0.171875 C 4.453125 0.171875 3.894531 0.0703125 3.375 -0.125 C 2.863281 -0.332031 2.414062 -0.640625 2.03125 -1.046875 C 1.644531 -1.460938 1.335938 -1.988281 1.109375 -2.625 C 0.890625 -3.269531 0.78125 -4.035156 0.78125 -4.921875 C 0.78125 -5.835938 0.90625 -6.613281 1.15625 -7.25 C 1.40625 -7.894531 1.734375 -8.421875 2.140625 -8.828125 C 2.546875 -9.234375 3 -9.53125 3.5 -9.71875 C 4.007812 -9.90625 4.53125 -10 5.0625 -10 C 5.625 -10 6.082031 -9.96875 6.4375 -9.90625 C 6.789062 -9.84375 7.09375 -9.765625 7.34375 -9.671875 L 7.0625 -8.640625 C 6.613281 -8.859375 5.972656 -8.96875 5.140625 -8.96875 C 4.753906 -8.96875 4.375 -8.894531 4 -8.75 C 3.625 -8.613281 3.289062 -8.382812 3 -8.0625 C 2.707031 -7.738281 2.46875 -7.320312 2.28125 -6.8125 C 2.101562 -6.300781 2.015625 -5.671875 2.015625 -4.921875 C 2.015625 -4.242188 2.097656 -3.648438 2.265625 -3.140625 C 2.441406 -2.640625 2.675781 -2.21875 2.96875 -1.875 C 3.257812 -1.539062 3.601562 -1.289062 4 -1.125 C 4.40625 -0.957031 4.84375 -0.875 5.3125 -0.875 C 5.726562 -0.875 6.09375 -0.914062 6.40625 -1 C 6.726562 -1.082031 6.992188 -1.191406 7.203125 -1.328125 Z M 7.484375 -0.40625 "/></g></g></g><g fill="#222222" fill-opacity="1"><g transform="translate(150.303213, 225.405381)"><g><path d="M 7.078125 -4.515625 L 2.359375 -4.515625 L 2.359375 0 L 1.1875 0 L 1.1875 -9.828125 L 2.359375 -9.828125 L 2.359375 -5.546875 L 7.078125 -5.546875 L 7.078125 -9.828125 L 8.25 -9.828125 L 8.25 0 L 7.078125 0 Z M 7.078125 -4.515625 "/></g></g></g><g fill="#222222" fill-opacity="1"><g transform="translate(164.094056, 225.405381)"><g/></g></g><g fill="#222222" fill-opacity="1"><g transform="translate(172.199081, 225.405381)"><g><path d="M 5.625 -2.5 C 5.625 -2.894531 5.507812 -3.210938 5.28125 -3.453125 C 5.050781 -3.703125 4.757812 -3.921875 4.40625 -4.109375 C 4.050781 -4.304688 3.664062 -4.488281 3.25 -4.65625 C 2.84375 -4.832031 2.460938 -5.035156 2.109375 -5.265625 C 1.765625 -5.503906 1.472656 -5.800781 1.234375 -6.15625 C 1.003906 -6.507812 0.890625 -6.957031 0.890625 -7.5 C 0.890625 -8.269531 1.15625 -8.878906 1.6875 -9.328125 C 2.21875 -9.773438 2.976562 -10 3.96875 -10 C 4.53125 -10 5.046875 -9.957031 5.515625 -9.875 C 5.984375 -9.789062 6.347656 -9.679688 6.609375 -9.546875 L 6.265625 -8.53125 C 6.046875 -8.632812 5.726562 -8.734375 5.3125 -8.828125 C 4.894531 -8.921875 4.425781 -8.96875 3.90625 -8.96875 C 3.289062 -8.96875 2.828125 -8.828125 2.515625 -8.546875 C 2.203125 -8.273438 2.046875 -7.953125 2.046875 -7.578125 C 2.046875 -7.210938 2.160156 -6.90625 2.390625 -6.65625 C 2.628906 -6.414062 2.925781 -6.195312 3.28125 -6 C 3.632812 -5.8125 4.015625 -5.625 4.421875 -5.4375 C 4.835938 -5.25 5.21875 -5.03125 5.5625 -4.78125 C 5.914062 -4.53125 6.207031 -4.234375 6.4375 -3.890625 C 6.675781 -3.546875 6.796875 -3.113281 6.796875 -2.59375 C 6.796875 -2.175781 6.71875 -1.796875 6.5625 -1.453125 C 6.414062 -1.117188 6.195312 -0.828125 5.90625 -0.578125 C 5.625 -0.335938 5.273438 -0.148438 4.859375 -0.015625 C 4.441406 0.109375 3.972656 0.171875 3.453125 0.171875 C 2.753906 0.171875 2.175781 0.113281 1.71875 0 C 1.257812 -0.101562 0.898438 -0.21875 0.640625 -0.34375 L 1.046875 -1.40625 C 1.253906 -1.28125 1.566406 -1.160156 1.984375 -1.046875 C 2.410156 -0.929688 2.882812 -0.875 3.40625 -0.875 C 3.71875 -0.875 4.007812 -0.898438 4.28125 -0.953125 C 4.550781 -1.015625 4.785156 -1.113281 4.984375 -1.25 C 5.179688 -1.382812 5.335938 -1.554688 5.453125 -1.765625 C 5.566406 -1.972656 5.625 -2.21875 5.625 -2.5 Z M 5.625 -2.5 "/></g></g></g><g fill="#222222" fill-opacity="1"><g transform="translate(184.010413, 225.405381)"><g><path d="M 1.1875 -9.828125 L 6.546875 -9.828125 L 6.546875 -8.796875 L 2.359375 -8.796875 L 2.359375 -5.578125 L 6.1875 -5.578125 L 6.1875 -4.53125 L 2.359375 -4.53125 L 2.359375 -1.046875 L 6.609375 -1.046875 L 6.609375 0 L 1.1875 0 Z M 1.1875 -9.828125 "/></g></g></g><g fill="#222222" fill-opacity="1"><g transform="translate(195.891943, 225.405381)"><g><path d="M 1.1875 -9.734375 C 1.550781 -9.796875 1.960938 -9.84375 2.421875 -9.875 C 2.890625 -9.914062 3.3125 -9.9375 3.6875 -9.9375 C 4.125 -9.9375 4.535156 -9.890625 4.921875 -9.796875 C 5.304688 -9.710938 5.644531 -9.5625 5.9375 -9.34375 C 6.238281 -9.125 6.476562 -8.84375 6.65625 -8.5 C 6.832031 -8.15625 6.921875 -7.734375 6.921875 -7.234375 C 6.921875 -6.460938 6.707031 -5.835938 6.28125 -5.359375 C 5.863281 -4.890625 5.332031 -4.570312 4.6875 -4.40625 L 5.359375 -3.890625 L 7.8125 0 L 6.453125 0 L 3.734375 -4.234375 L 2.359375 -4.453125 L 2.359375 0 L 1.1875 0 Z M 3.71875 -8.9375 C 3.601562 -8.9375 3.476562 -8.9375 3.34375 -8.9375 C 3.207031 -8.9375 3.078125 -8.929688 2.953125 -8.921875 C 2.835938 -8.910156 2.722656 -8.898438 2.609375 -8.890625 C 2.503906 -8.878906 2.421875 -8.863281 2.359375 -8.84375 L 2.359375 -5.21875 L 3.453125 -5.21875 C 4.097656 -5.21875 4.628906 -5.378906 5.046875 -5.703125 C 5.472656 -6.023438 5.6875 -6.519531 5.6875 -7.1875 C 5.6875 -7.695312 5.515625 -8.113281 5.171875 -8.4375 C 4.828125 -8.769531 4.34375 -8.9375 3.71875 -8.9375 Z M 3.71875 -8.9375 "/></g></g></g><g fill="#222222" fill-opacity="1"><g transform="translate(208.601774, 225.405381)"><g><path d="M 3.75 -3.078125 L 4.09375 -1.59375 L 4.109375 -1.59375 L 4.46875 -3.109375 L 6.84375 -9.828125 L 8 -9.828125 L 4.28125 0.15625 L 3.765625 0.15625 L -0.03125 -9.828125 L 1.25 -9.828125 Z M 3.75 -3.078125 "/></g></g></g><g fill="#222222" fill-opacity="1"><g transform="translate(220.932553, 225.405381)"><g><path d="M 1.453125 -9.828125 L 2.625 -9.828125 L 2.625 0 L 1.453125 0 Z M 1.453125 -9.828125 "/></g></g></g><g fill="#222222" fill-opacity="1"><g transform="translate(229.374516, 225.405381)"><g><path d="M 7.484375 -0.40625 C 7.203125 -0.1875 6.84375 -0.0351562 6.40625 0.046875 C 5.976562 0.128906 5.523438 0.171875 5.046875 0.171875 C 4.453125 0.171875 3.894531 0.0703125 3.375 -0.125 C 2.863281 -0.332031 2.414062 -0.640625 2.03125 -1.046875 C 1.644531 -1.460938 1.335938 -1.988281 1.109375 -2.625 C 0.890625 -3.269531 0.78125 -4.035156 0.78125 -4.921875 C 0.78125 -5.835938 0.90625 -6.613281 1.15625 -7.25 C 1.40625 -7.894531 1.734375 -8.421875 2.140625 -8.828125 C 2.546875 -9.234375 3 -9.53125 3.5 -9.71875 C 4.007812 -9.90625 4.53125 -10 5.0625 -10 C 5.625 -10 6.082031 -9.96875 6.4375 -9.90625 C 6.789062 -9.84375 7.09375 -9.765625 7.34375 -9.671875 L 7.0625 -8.640625 C 6.613281 -8.859375 5.972656 -8.96875 5.140625 -8.96875 C 4.753906 -8.96875 4.375 -8.894531 4 -8.75 C 3.625 -8.613281 3.289062 -8.382812 3 -8.0625 C 2.707031 -7.738281 2.46875 -7.320312 2.28125 -6.8125 C 2.101562 -6.300781 2.015625 -5.671875 2.015625 -4.921875 C 2.015625 -4.242188 2.097656 -3.648438 2.265625 -3.140625 C 2.441406 -2.640625 2.675781 -2.21875 2.96875 -1.875 C 3.257812 -1.539062 3.601562 -1.289062 4 -1.125 C 4.40625 -0.957031 4.84375 -0.875 5.3125 -0.875 C 5.726562 -0.875 6.09375 -0.914062 6.40625 -1 C 6.726562 -1.082031 6.992188 -1.191406 7.203125 -1.328125 Z M 7.484375 -0.40625 "/></g></g></g><g fill="#222222" fill-opacity="1"><g transform="translate(241.747409, 225.405381)"><g><path d="M 1.1875 -9.828125 L 6.546875 -9.828125 L 6.546875 -8.796875 L 2.359375 -8.796875 L 2.359375 -5.578125 L 6.1875 -5.578125 L 6.1875 -4.53125 L 2.359375 -4.53125 L 2.359375 -1.046875 L 6.609375 -1.046875 L 6.609375 0 L 1.1875 0 Z M 1.1875 -9.828125 "/></g></g></g><g fill="#222222" fill-opacity="1"><g transform="translate(253.628939, 225.405381)"><g><path d="M 5.625 -2.5 C 5.625 -2.894531 5.507812 -3.210938 5.28125 -3.453125 C 5.050781 -3.703125 4.757812 -3.921875 4.40625 -4.109375 C 4.050781 -4.304688 3.664062 -4.488281 3.25 -4.65625 C 2.84375 -4.832031 2.460938 -5.035156 2.109375 -5.265625 C 1.765625 -5.503906 1.472656 -5.800781 1.234375 -6.15625 C 1.003906 -6.507812 0.890625 -6.957031 0.890625 -7.5 C 0.890625 -8.269531 1.15625 -8.878906 1.6875 -9.328125 C 2.21875 -9.773438 2.976562 -10 3.96875 -10 C 4.53125 -10 5.046875 -9.957031 5.515625 -9.875 C 5.984375 -9.789062 6.347656 -9.679688 6.609375 -9.546875 L 6.265625 -8.53125 C 6.046875 -8.632812 5.726562 -8.734375 5.3125 -8.828125 C 4.894531 -8.921875 4.425781 -8.96875 3.90625 -8.96875 C 3.289062 -8.96875 2.828125 -8.828125 2.515625 -8.546875 C 2.203125 -8.273438 2.046875 -7.953125 2.046875 -7.578125 C 2.046875 -7.210938 2.160156 -6.90625 2.390625 -6.65625 C 2.628906 -6.414062 2.925781 -6.195312 3.28125 -6 C 3.632812 -5.8125 4.015625 -5.625 4.421875 -5.4375 C 4.835938 -5.25 5.21875 -5.03125 5.5625 -4.78125 C 5.914062 -4.53125 6.207031 -4.234375 6.4375 -3.890625 C 6.675781 -3.546875 6.796875 -3.113281 6.796875 -2.59375 C 6.796875 -2.175781 6.71875 -1.796875 6.5625 -1.453125 C 6.414062 -1.117188 6.195312 -0.828125 5.90625 -0.578125 C 5.625 -0.335938 5.273438 -0.148438 4.859375 -0.015625 C 4.441406 0.109375 3.972656 0.171875 3.453125 0.171875 C 2.753906 0.171875 2.175781 0.113281 1.71875 0 C 1.257812 -0.101562 0.898438 -0.21875 0.640625 -0.34375 L 1.046875 -1.40625 C 1.253906 -1.28125 1.566406 -1.160156 1.984375 -1.046875 C 2.410156 -0.929688 2.882812 -0.875 3.40625 -0.875 C 3.71875 -0.875 4.007812 -0.898438 4.28125 -0.953125 C 4.550781 -1.015625 4.785156 -1.113281 4.984375 -1.25 C 5.179688 -1.382812 5.335938 -1.554688 5.453125 -1.765625 C 5.566406 -1.972656 5.625 -2.21875 5.625 -2.5 Z M 5.625 -2.5 "/></g></g></g></svg>